<svg xmlns="http://www.w3.org/2000/svg" viewBox="0 0 39 32.5">
  <g transform="translate(39.043 32.536) rotate(180)">
      <path class="arrowSVG" d="M15.842,1.2c-.189.184-1,.878-1.659,1.525C10.008,6.517,3.175,16.406,1.09,21.582A15.021,15.021,0,0,0,0,25.417,6.29,6.29,0,0,0,.709,28.33a6.1,6.1,0,0,0,2.941,2.586,32.017,32.017,0,0,0,3.462.834,78.015,78.015,0,0,0,12.383.786,90.2,90.2,0,0,0,12-.694,27.637,27.637,0,0,0,4.318-1.109A5.808,5.808,0,0,0,39.043,25.6v-.184a15.873,15.873,0,0,0-1.331-4.3c-2.089-4.9-8.586-14.558-12.9-18.441a18.414,18.414,0,0,0-1.8-1.569A5.8,5.8,0,0,0,19.544,0a6.1,6.1,0,0,0-3.7,1.2" fill="#fff"/>
  </g>
</svg>