<svg xmlns="http://www.w3.org/2000/svg" viewBox="0 0 32.536 39.043">
    <g transform="translate(32.536) rotate(90)">
        <path id="Pfad_20" data-name="Pfad 20"
              d="M15.842,1.2c-.189.184-1,.878-1.659,1.525C10.008,6.517,3.176,16.406,1.09,21.582A15.02,15.02,0,0,0,0,25.417,6.29,6.29,0,0,0,.709,28.33a6.1,6.1,0,0,0,2.941,2.586,32.017,32.017,0,0,0,3.462.834,78.017,78.017,0,0,0,12.383.786,90.2,90.2,0,0,0,12-.694,27.639,27.639,0,0,0,4.318-1.109A5.808,5.808,0,0,0,39.043,25.6v-.184a15.873,15.873,0,0,0-1.331-4.3c-2.089-4.9-8.586-14.558-12.9-18.441a18.415,18.415,0,0,0-1.8-1.569A5.8,5.8,0,0,0,19.544,0a6.1,6.1,0,0,0-3.7,1.2"
              fill="#f78104"/>
    </g>
</svg>
