<svg xmlns="http://www.w3.org/2000/svg" width="56.523" height="55.414" viewBox="0 0 56.523 55.414">
   <g transform="translate(-7 -80.999)">
      <path d="M-5361.979-8038.739a28.565,28.565,0,0,1-11-2.177,28.191,28.191,0,0,1-8.982-5.937,27.594,27.594,0,0,1-6.057-8.806,27.066,27.066,0,0,1-2.221-10.785,27.07,27.07,0,0,1,2.221-10.785,27.593,27.593,0,0,1,6.057-8.807,28.2,28.2,0,0,1,8.982-5.938,28.565,28.565,0,0,1,11-2.177,28.572,28.572,0,0,1,11,2.177,28.216,28.216,0,0,1,8.983,5.938,27.608,27.608,0,0,1,6.057,8.807,27.07,27.07,0,0,1,2.221,10.785,27.066,27.066,0,0,1-2.221,10.785,27.6,27.6,0,0,1-6.057,8.806,28.2,28.2,0,0,1-8.983,5.938A28.572,28.572,0,0,1-5361.979-8038.739Zm-10.528-31.031a3.328,3.328,0,0,0-3.323,3.325,3.328,3.328,0,0,0,3.323,3.325h7.758v6.649a3.329,3.329,0,0,0,3.325,3.325,3.329,3.329,0,0,0,3.325-3.325v-6.649h6.649a3.329,3.329,0,0,0,3.325-3.325,3.329,3.329,0,0,0-3.325-3.325h-6.649v-6.649a3.329,3.329,0,0,0-3.325-3.325,3.329,3.329,0,0,0-3.325,3.325v6.649Z" transform="translate(5397.239 8175.151)" fill="#005f60" />
   </g>
</svg>