<svg xmlns="http://www.w3.org/2000/svg" viewBox="0 0 86.953 102.298">
    <path
        d="M43.4,0C59.1,0,71.725,12.351,71.725,27.6h0v7.843a21.339,21.339,0,0,1,15.229,20.25h0V80.945A21.6,21.6,0,0,1,65.124,102.3H21.835A21.6,21.6,0,0,1,0,80.945H0V55.693a21.346,21.346,0,0,1,15.229-20.25h0V27.6C15.281,12.351,27.91,0,43.4,0Zm.052,58.23a4.476,4.476,0,0,0-4.522,4.422h0V73.936a4.548,4.548,0,0,0,9.1,0h0V62.652A4.488,4.488,0,0,0,43.451,58.23ZM43.5,8.9A18.962,18.962,0,0,0,24.324,27.5h0V34.34H62.63V27.6A18.936,18.936,0,0,0,43.5,8.9Z"
        fill="#f78104"/>
</svg>
