<svg xmlns="http://www.w3.org/2000/svg" viewBox="0 0 98.942 116.402">
   <path id="Pfad_81" data-name="Pfad 81" d="M56.761,0a2.7,2.7,0,0,1,2.651,2.677h0V21.418A19.454,19.454,0,0,0,78.658,40.857c4.321,0,7.779.058,10.43.058,1.787,0,4.725-.058,7.2-.058a2.644,2.644,0,0,1,2.65,2.619h0V90.27A26.051,26.051,0,0,1,73.011,116.4H27.2A27.3,27.3,0,0,1,0,88.99H0V26.249A26.126,26.126,0,0,1,25.989,0H56.761ZM47.368,39.228a4.1,4.1,0,0,0-1.671.349,4.469,4.469,0,0,0-1.383.931h0L27.833,57.27a4.351,4.351,0,0,0,0,6.111,4.248,4.248,0,0,0,6.051,0h0l9.162-9.312V82.18a4.293,4.293,0,1,0,8.586,0h0V54.069l9.162,9.312a4.248,4.248,0,0,0,6.051,0A4.3,4.3,0,0,0,66.9,57.27h0L50.364,40.508a4.469,4.469,0,0,0-1.383-.931A3.835,3.835,0,0,0,47.368,39.228ZM67.776,5.273a2.747,2.747,0,0,1,4.731-1.944C78.743,9.871,89.628,21.307,95.713,27.7a2.778,2.778,0,0,1-1.982,4.7c-4.737.017-10.315,0-14.331-.041A11.741,11.741,0,0,1,67.776,20.615h0Z" transform="translate(0)" fill="#f78104"/>
</svg>