<svg xmlns="http://www.w3.org/2000/svg" viewBox="0 0 89 106">
  <path d="M65,106H24A24,24,0,0,1,0,82V24A24,24,0,0,1,24,0H65A24,24,0,0,1,89,24V82a24,24,0,0,1-24,24ZM44.5,18.068A25,25,0,0,0,19.514,43.024c0,3.144,1.309,7.461,3.891,12.832a132.834,132.834,0,0,0,8.561,14.791c6.151,9.389,12.39,17.207,12.452,17.285.055-.068,6.381-7.954,12.534-17.285a132.619,132.619,0,0,0,8.617-14.791c2.6-5.37,3.917-9.688,3.917-12.832A25,25,0,0,0,44.5,18.068Zm-.082,32.419a7.7,7.7,0,1,1,7.714-7.7A7.715,7.715,0,0,1,44.418,50.487Z" fill="#f78104"/>
</svg>
