<svg xmlns="http://www.w3.org/2000/svg" viewBox="0 0 115.113 115.113">
    <path
        d="M108.653,102.024a6.545,6.545,0,0,1,0,13.089H72.136a6.545,6.545,0,0,1,0-13.089h36.517ZM83.328,4.471l9.433,7.493A19.6,19.6,0,0,1,100.09,23.17a15.356,15.356,0,0,1-3.121,13.062L40.778,108.9a13.458,13.458,0,0,1-10.451,5.225L7.933,114.4A2.557,2.557,0,0,1,5.422,112.4L.332,90.335A13.639,13.639,0,0,1,2.911,78.854l39.835-51.56a2,2,0,0,1,2.715-.344L62.223,40.287a5.412,5.412,0,0,0,4.14,1.169,6.043,6.043,0,0,0,5.226-6.668,6.715,6.715,0,0,0-2.1-4.056C69.145,30.457,53.2,17.67,53.2,17.67a2.419,2.419,0,0,1-.407-3.362L59.1,6.121C64.937-1.373,75.117-2.06,83.328,4.471Z"
        transform="translate(0 0)" fill="#fff4ee"/>
</svg>
