<svg xmlns="http://www.w3.org/2000/svg" viewBox="0 0 95.284 85.755">
    <path
        d="M71.172,0A24.09,24.09,0,0,1,95.284,24.059h0V61.7A24.1,24.1,0,0,1,71.172,85.755H24.107A24.091,24.091,0,0,1,0,61.7H0V24.059A24.06,24.06,0,0,1,24.107,0H71.172Zm5.388,24.774a3.621,3.621,0,0,0-2.673.953h0L52.406,42.878a7.462,7.462,0,0,1-9.528,0h0L21.439,25.727a3.642,3.642,0,0,0-5.1,5.1h0l.624.619L38.638,48.357a15,15,0,0,0,18.623,0h0l21.491-17.2.381-.381a3.685,3.685,0,0,0-.052-4.764A4.006,4.006,0,0,0,76.561,24.774Z"
        transform="translate(0 0)" fill="#f78104"/>
</svg>
