<svg xmlns="http://www.w3.org/2000/svg" viewBox="0 0 85.755 85.755">
    <path
        d="M61.487,0C76.022,0,85.755,10.2,85.755,25.384h0V60.415c0,15.136-9.733,25.341-24.269,25.341H24.312C9.776,85.755,0,75.55,0,60.415H0V25.384C0,10.2,9.776,0,24.312,0H61.487Zm.6,37.737a5.143,5.143,0,1,0,5.1,5.141A5.157,5.157,0,0,0,62.087,37.737Zm-19.209,0a5.143,5.143,0,1,0,5.145,5.141A5.157,5.157,0,0,0,42.878,37.737Zm-19.209,0a5.143,5.143,0,1,0,5.145,5.141A5.157,5.157,0,0,0,23.668,37.737Z"
        transform="translate(0 0)" fill="#f78104"/>
</svg>
