<svg xmlns="http://www.w3.org/2000/svg" viewBox="0 0 50.94 50.94">
  <path d="M45.482,2.25H5.458A5.459,5.459,0,0,0,0,7.708V47.732A5.459,5.459,0,0,0,5.458,53.19H45.482a5.459,5.459,0,0,0,5.458-5.458V7.708A5.459,5.459,0,0,0,45.482,2.25Zm-5.56,18.056c.023.318.023.648.023.966,0,9.858-7.5,21.217-21.217,21.217a21.12,21.12,0,0,1-11.45-3.343,15.711,15.711,0,0,0,1.8.091,14.952,14.952,0,0,0,9.256-3.184,7.467,7.467,0,0,1-6.97-5.174,8.037,8.037,0,0,0,3.366-.136,7.458,7.458,0,0,1-5.97-7.323v-.091a7.452,7.452,0,0,0,3.366.944A7.442,7.442,0,0,1,8.8,18.066,7.364,7.364,0,0,1,9.813,14.3a21.175,21.175,0,0,0,15.373,7.8,7.473,7.473,0,0,1,12.724-6.811,14.613,14.613,0,0,0,4.73-1.8,7.438,7.438,0,0,1-3.275,4.1,14.84,14.84,0,0,0,4.3-1.16A15.7,15.7,0,0,1,39.922,20.306Z" transform="translate(0 -2.25)" fill="#1d212f"/>
</svg>