<svg xmlns="http://www.w3.org/2000/svg" viewBox="0 0 65.515 65.515">
  <path d="M32.757,0A32.757,32.757,0,1,0,65.515,32.757,32.854,32.854,0,0,0,32.757,0Zm0,8.189A24.568,24.568,0,1,1,8.189,32.757,24.535,24.535,0,0,1,32.757,8.189Zm0,8.189a4.095,4.095,0,1,0,4.095,4.095A4.055,4.055,0,0,0,32.757,16.379ZM19.163,24.568a4.095,4.095,0,0,0-1.556,6.879L25.059,38.9a8.316,8.316,0,0,0-.491,2.047,8.189,8.189,0,1,0,8.189-8.189,8.316,8.316,0,0,0-2.047.491L23.258,25.8a4.1,4.1,0,0,0-3.6-1.31,4.1,4.1,0,0,0-.491,0Zm25.878,0a4.095,4.095,0,1,0,4.095,4.095A4.055,4.055,0,0,0,45.041,24.568Z" fill="#005f60"/>
</svg>
