<svg xmlns="http://www.w3.org/2000/svg" viewBox="0 0 51.652 51.652">
    <path
        d="M25.826,0C18.81,0,17.934.032,15.179.155a19.044,19.044,0,0,0-6.269,1.2A12.647,12.647,0,0,0,4.335,4.335,12.6,12.6,0,0,0,1.356,8.91a18.988,18.988,0,0,0-1.2,6.269C.026,17.934,0,18.81,0,25.826s.032,7.892.155,10.647a19.055,19.055,0,0,0,1.2,6.269,12.665,12.665,0,0,0,2.979,4.576A12.629,12.629,0,0,0,8.91,50.3a19.067,19.067,0,0,0,6.269,1.2c2.755.129,3.631.155,10.647.155s7.892-.032,10.647-.155a19.111,19.111,0,0,0,6.269-1.2A13.2,13.2,0,0,0,50.3,42.742a19.056,19.056,0,0,0,1.2-6.269c.129-2.755.155-3.631.155-10.647s-.032-7.892-.155-10.647A19.1,19.1,0,0,0,50.3,8.91a12.675,12.675,0,0,0-2.979-4.576,12.583,12.583,0,0,0-4.576-2.979,19,19,0,0,0-6.269-1.2C33.718.026,32.842,0,25.826,0Zm0,4.649c6.893,0,7.716.034,10.438.153a14.229,14.229,0,0,1,4.793.893,8.5,8.5,0,0,1,4.9,4.9,14.259,14.259,0,0,1,.889,4.793c.123,2.725.151,3.542.151,10.438s-.032,7.716-.159,10.438a14.534,14.534,0,0,1-.906,4.793A8.2,8.2,0,0,1,44,44.032a8.057,8.057,0,0,1-2.97,1.928,14.364,14.364,0,0,1-4.81.889c-2.742.123-3.549.151-10.457.151s-7.718-.032-10.457-.159a14.644,14.644,0,0,1-4.812-.906A8,8,0,0,1,7.524,44a7.842,7.842,0,0,1-1.937-2.97,14.657,14.657,0,0,1-.9-4.81c-.1-2.712-.131-3.549-.131-10.425s.034-7.718.131-10.462a14.64,14.64,0,0,1,.9-4.808A7.656,7.656,0,0,1,7.524,7.552a7.639,7.639,0,0,1,2.968-1.933,14.294,14.294,0,0,1,4.78-.906c2.744-.1,3.551-.129,10.457-.129l.1.065Zm0,7.916A13.262,13.262,0,1,0,39.088,25.826,13.261,13.261,0,0,0,25.826,12.564Zm0,21.871a8.609,8.609,0,1,1,8.609-8.609A8.606,8.606,0,0,1,25.826,34.435ZM42.712,12.041a3.1,3.1,0,1,1-3.1-3.1A3.1,3.1,0,0,1,42.712,12.041Z"
        fill="#1d212f"/>
</svg>
