<svg xmlns="http://www.w3.org/2000/svg" viewBox="0 0 116.277 104.649">
   <path id="Pfad_80" data-name="Pfad 80" d="M84.391,0c20.051,0,31.885,11.538,31.885,31.289h-24.6v.2A20.418,20.418,0,0,0,71.006,51.644,20.418,20.418,0,0,0,91.678,71.8h24.6v1.814c0,19.5-11.835,31.037-31.885,31.037H31.886C11.834,104.649,0,93.111,0,73.612H0V31.037C0,11.538,11.834,0,31.886,0H84.391Zm27.544,39.955a4.288,4.288,0,0,1,4.341,4.232h0V58.9a4.338,4.338,0,0,1-4.341,4.232H92.143A12.243,12.243,0,0,1,80,53.861a11.525,11.525,0,0,1,2.518-9.605,12.159,12.159,0,0,1,9.161-4.3h20.258Zm-17.467,6.8H92.556a4.452,4.452,0,0,0-3.139,1.236,4.23,4.23,0,0,0-1.3,3.046,4.439,4.439,0,0,0,4.444,4.383h1.912a4.334,4.334,0,1,0,0-8.666ZM60.36,22.623H27.545A4.391,4.391,0,0,0,23.1,26.905a4.439,4.439,0,0,0,4.444,4.383H60.36a4.334,4.334,0,1,0,0-8.666Z" transform="translate(0 0)" fill="#f78104"/>
</svg>
