<svg xmlns="http://www.w3.org/2000/svg" viewBox="0 0 136.662 137.831">
    <path
        d="M104.777,137.831l-.211-.077H16.009A16.047,16.047,0,0,1,0,121.668V16.087A16.048,16.048,0,0,1,16.009,0H120.653a16.048,16.048,0,0,1,16.009,16.087V122.831a15,15,0,0,1-15,15ZM85.355,95.664c2.343,2.967,5.154,6.325,5.154,6.325,17.258-.546,23.9-11.87,23.9-11.87,0-25.146-11.245-45.528-11.245-45.528-11.245-8.434-21.944-8.2-21.944-8.2l-1.093,1.249C93.4,41.7,99.568,47.559,99.568,47.559a66.355,66.355,0,0,0-58.335-2.265c-2.889,1.328-4.607,2.265-4.607,2.265s6.482-6.169,20.538-10.23l-.78-.937s-10.7-.235-21.945,8.2c0,0-11.245,20.382-11.245,45.528,0,0,6.559,11.324,23.818,11.87,0,0,2.89-3.514,5.233-6.482-9.918-2.967-13.667-9.215-13.667-9.215,1.149.8,3.043,1.847,3.2,1.953a56.926,56.926,0,0,0,48.73,2.732,44.657,44.657,0,0,0,8.98-4.607S95.585,92.774,85.355,95.664ZM74.734,74.188c0-4.764,3.515-8.668,7.966-8.668s7.965,3.9,7.965,8.668-3.514,8.668-7.965,8.668C78.327,82.856,74.734,78.952,74.734,74.188Zm-28.5,0c0-4.764,3.514-8.668,7.965-8.668s8.043,3.9,7.966,8.668c0,4.764-3.514,8.668-7.966,8.668C49.823,82.856,46.231,78.952,46.231,74.188Z"
        fill="#1d212f"/>
</svg>
