<svg xmlns="http://www.w3.org/2000/svg" viewBox="0 0 25.85 28.378">
    <path
        d="M9.027,26.637V22.3a1.972,1.972,0,0,1,1.937-2.005h3.91a1.9,1.9,0,0,1,1.37.587,2.042,2.042,0,0,1,.567,1.418v4.339a1.76,1.76,0,0,0,.484,1.23,1.641,1.641,0,0,0,1.184.511h2.668a4.611,4.611,0,0,0,3.324-1.418,4.944,4.944,0,0,0,1.378-3.438V11.162a3.57,3.57,0,0,0-1.218-2.7L15.556.959a4.082,4.082,0,0,0-5.372.1l-8.868,7.4A3.562,3.562,0,0,0,0,11.162V23.51a4.787,4.787,0,0,0,4.7,4.868H7.309A1.711,1.711,0,0,0,8.99,26.65Z"
        fill="#1d212f"/>
</svg>
