<svg xmlns="http://www.w3.org/2000/svg" width="55.414" height="55.414" viewBox="0 0 55.414 55.414">
  <path d="M-3719.293-7998.587a27.533,27.533,0,0,1-10.785-2.177,27.614,27.614,0,0,1-8.807-5.938,27.611,27.611,0,0,1-5.938-8.807,27.533,27.533,0,0,1-2.177-10.784,27.54,27.54,0,0,1,2.177-10.786,27.616,27.616,0,0,1,5.938-8.807,27.614,27.614,0,0,1,8.807-5.938,27.533,27.533,0,0,1,10.785-2.177,27.529,27.529,0,0,1,10.784,2.177,27.608,27.608,0,0,1,8.806,5.938,27.607,27.607,0,0,1,5.938,8.807,27.536,27.536,0,0,1,2.177,10.786,27.529,27.529,0,0,1-2.177,10.784,27.608,27.608,0,0,1-5.938,8.807,27.608,27.608,0,0,1-8.806,5.938A27.531,27.531,0,0,1-3719.293-7998.587Zm-6.274-42.68c-4.577,0-7.2,2.636-7.2,7.232v15.469c0,4.6,2.625,7.246,7.2,7.246h12.548c4.644,0,7.2-2.573,7.2-7.246v-15.469c0-4.6-2.625-7.232-7.2-7.232Zm.262,22.935a1.185,1.185,0,0,1-.982-.549,1.2,1.2,0,0,1,0-1.257,1.177,1.177,0,0,1,1-.562c.039,0,.077,0,.119.006h11.74a1.176,1.176,0,0,1,1.047,1.185,1.166,1.166,0,0,1-1.047,1.168h-11.74A1.023,1.023,0,0,1-3725.3-8018.332Zm11.882-6.853h-11.74a1.17,1.17,0,0,1-1.168-1.168,1.17,1.17,0,0,1,1.168-1.168h11.74a1.169,1.169,0,0,1,1.166,1.168A1.169,1.169,0,0,1-3713.423-8025.185Zm-7.264-6.768h-4.475a1.17,1.17,0,0,1-1.168-1.168,1.17,1.17,0,0,1,1.168-1.168v-.014h4.475a1.17,1.17,0,0,1,1.17,1.167A1.179,1.179,0,0,1-3720.687-8031.953Z" transform="translate(3747 8054)" fill="#005f60"/>
</svg>
