<svg xmlns="http://www.w3.org/2000/svg" viewBox="0 0 156.749 156.749">
    <path
        d="M112.389,0c26.569,0,44.36,18.653,44.36,46.4h0v64.04c0,27.666-17.791,46.312-44.36,46.312H44.438C17.869,156.749,0,138.1,0,110.438H0V46.4C0,18.653,17.869,0,44.438,0h67.951ZM101.965,54.635a6.892,6.892,0,0,0-9.718,0h0L78.375,68.578,64.424,54.635a6.869,6.869,0,0,0-9.718,9.711h0L68.656,78.3,54.705,92.176a6.9,6.9,0,0,0,0,9.711,6.97,6.97,0,0,0,4.859,2.046,6.833,6.833,0,0,0,4.859-2.046h0L78.375,88.022l13.951,13.864a6.449,6.449,0,0,0,4.781,2.046,6.862,6.862,0,0,0,4.859-11.678h0L88.015,78.3l13.951-13.959A6.9,6.9,0,0,0,101.965,54.635Z"
        fill="#E64B3B"/>
</svg>
