<svg xmlns="http://www.w3.org/2000/svg" viewBox="0 0 33.195 39.842">
  <path d="M31.4,10.821c-3.485,0-4.958,1.712-7.385,1.712-2.489,0-4.388-1.7-7.406-1.7-2.956,0-6.11,1.857-8.112,5.02-2.811,4.46-2.334,12.862,2.22,20.02,1.629,2.562,3.807,5.435,6.659,5.466h.052c2.479,0,3.216-1.67,6.628-1.691H24.1c3.361,0,4.035,1.68,6.5,1.68h.052c2.853-.031,5.145-3.216,6.773-5.767a28.372,28.372,0,0,0,2.51-4.834c-6.587-2.572-7.645-12.178-1.131-15.86A9.754,9.754,0,0,0,31.4,10.821Z" transform="translate(-6.748 -1.496)" fill="#1d212f"/>
  <path d="M25.492,4.5a9.071,9.071,0,0,0-5.913,3.278,8.25,8.25,0,0,0-1.929,6.307h.166A7.7,7.7,0,0,0,23.6,10.962,8.835,8.835,0,0,0,25.492,4.5Z" transform="translate(-1.611 -4.5)" fill="#1d212f"/>
</svg>