<svg xmlns="http://www.w3.org/2000/svg" width="18" height="18" viewBox="0 0 18 18">
   <g fill="none" fill-rule="evenodd">
      <g fill="#4B96E6">
         <g>
            <g>
               <path
                  d="M16 0c1.105 0 2 .895 2 2v14c0 1.105-.895 2-2 2H2c-1.105 0-2-.895-2-2V2C0 .895.895 0 2 0h14zm-1.793 5.293c-.39-.39-1.024-.39-1.414 0L7.5 10.585 5.207 8.293l-.094-.083c-.392-.305-.96-.278-1.32.083-.39.39-.39 1.024 0 1.414l3 3 .094.083c.392.305.96.278 1.32-.083l6-6 .083-.094c.305-.392.278-.96-.083-1.32z"
                  transform="translate(-1050 -296) translate(788 192) translate(262 104)" />
            </g>
         </g>
      </g>
   </g>
</svg>