<svg xmlns="http://www.w3.org/2000/svg" width="55.001" height="56" viewBox="0 0 55.001 56">
  <g transform="translate(-0.478 -0.069)">
    <path d="M-5496.021-8113.647a26.914,26.914,0,0,1-10.705-2.2,27.393,27.393,0,0,1-8.741-6,27.93,27.93,0,0,1-5.894-8.9,28.265,28.265,0,0,1-2.161-10.9,28.258,28.258,0,0,1,2.161-10.9,27.938,27.938,0,0,1,5.894-8.9,27.393,27.393,0,0,1,8.741-6,26.914,26.914,0,0,1,10.705-2.2,26.908,26.908,0,0,1,10.7,2.2,27.382,27.382,0,0,1,8.741,6,27.938,27.938,0,0,1,5.894,8.9,28.258,28.258,0,0,1,2.161,10.9,28.265,28.265,0,0,1-2.161,10.9,27.93,27.93,0,0,1-5.894,8.9,27.382,27.382,0,0,1-8.741,6A26.908,26.908,0,0,1-5496.021-8113.647Zm.133-22.078c-4.576,0-7.981.412-10.409,1.26-2.928,1.022-4.413,2.718-4.413,5.041,0,4.269,4.848,6.343,14.822,6.343,4.575,0,7.979-.412,10.405-1.26,2.928-1.022,4.412-2.718,4.412-5.041C-5481.07-8133.65-5485.917-8135.725-5495.888-8135.725Zm0-24.4a9.816,9.816,0,0,0-9.809,9.8,9.818,9.818,0,0,0,9.809,9.8,9.817,9.817,0,0,0,9.807-9.8A9.815,9.815,0,0,0-5495.888-8160.13Z" transform="translate(5524 8169.717)" fill="#005f60"/>
  </g>
</svg>